<?xml version="1.0" standalone="no"?>
<!DOCTYPE svg PUBLIC "-//W3C//DTD SVG 20010904//EN"
 "http://www.w3.org/TR/2001/REC-SVG-20010904/DTD/svg10.dtd">
<svg version="1.0" xmlns="http://www.w3.org/2000/svg"
 width="225.000000pt" height="225.000000pt" viewBox="0 0 225.000000 225.000000"
 preserveAspectRatio="xMidYMid meet">
<metadata>
Created by potrace 1.14, written by Peter Selinger 2001-2017
</metadata>
<g transform="translate(0.000000,225.000000) scale(0.100000,-0.100000)"
fill="#000000" stroke="none">
<path d="M1032 1664 c-30 -20 -28 -37 8 -67 38 -32 121 -64 219 -82 l76 -15
-90 5 c-170 9 -335 68 -335 120 0 13 8 29 18 34 9 6 12 11 7 11 -14 0 -56 -28
-72 -48 -80 -99 208 -234 550 -258 91 -6 200 7 212 26 9 14 -18 59 -65 113
l-42 47 -96 1 c-86 1 -91 2 -48 10 27 4 56 14 64 22 13 13 11 17 -9 31 -19 12
-33 13 -68 5 -77 -17 -264 22 -246 51 10 16 -59 11 -83 -6z m341 -171 c-7 -2
-19 -2 -25 0 -7 3 -2 5 12 5 14 0 19 -2 13 -5z"/>
<path d="M711 1526 c-42 -45 -51 -61 -51 -91 0 -51 23 -89 82 -136 133 -105
364 -180 663 -214 l120 -14 -155 4 c-379 10 -736 121 -769 238 l-8 32 -12 -28
c-23 -57 -7 -100 60 -165 128 -126 513 -232 850 -234 155 -1 179 8 196 72 6
25 12 71 12 103 l1 57 -97 0 c-54 0 -136 3 -183 8 l-85 7 140 5 c179 7 228 29
211 94 -6 24 -9 25 -28 15 -37 -20 -185 -22 -314 -5 -283 37 -518 127 -580
222 -14 21 -16 31 -7 55 6 16 10 29 9 29 -2 0 -26 -24 -55 -54z"/>
<path d="M553 1061 c5 -58 12 -82 33 -113 87 -125 380 -240 684 -267 l85 -8
-72 -2 c-229 -4 -551 79 -647 167 l-30 27 18 -30 c10 -16 30 -43 45 -58 87
-94 360 -178 586 -180 104 -2 113 0 157 26 26 16 65 45 88 65 l42 37 -78 -2
-79 -2 72 13 c79 15 128 39 150 73 15 22 14 22 -18 13 -50 -15 -219 -12 -339
5 -308 44 -602 163 -679 275 l-24 35 6 -74z"/>
<path d="M780 661 c39 -32 140 -79 205 -96 34 -9 97 -15 150 -14 l90 1 -97 13
c-123 17 -236 48 -313 86 -41 20 -52 23 -35 10z"/>
</g>
</svg>
